<svg xmlns="http://www.w3.org/2000/svg" viewBox="0 0 125.86 100.85"><defs><style>.cls-1{fill:#4c3594;}</style></defs><g id="Layer_2" data-name="Layer 2"><g id="Layer_1-2" data-name="Layer 1"><path class="cls-1" d="M107.26,38.36c1.69-2.93,2.34-8.48,1.42-12.66-1.87-8.48-6.84-14.35-15.16-16.94s-16-.66-22.46,5.45c-2.83,2.69-5.54,5.53-8.32,8.29-2.53,2.52-5.15,2.52-7.66,0-2.84-2.83-5.59-5.76-8.53-8.49C39.65,7.63,31.6,5.93,22.84,9.25,7.71,15,3.93,34.28,15.56,46Q36.62,67.18,57.8,88.25c.35.35.73.67,1.16,1.06C61.14,87.12,63.18,85,65.28,83a1.54,1.54,0,0,0,.37-2.17,31,31,0,0,1-3-19.63,31.47,31.47,0,0,1,30-26A32.59,32.59,0,0,1,107.26,38.36ZM73,91.48c-2.11,2.13-4.09,4.15-6.1,6.15-4.32,4.28-10,4.31-14.32,0Q31,76.13,9.52,54.58A31.81,31.81,0,0,1,26,.58C37.23-1.29,46.86,1.88,54.93,9.9l4.78,4.79c.45-.43.82-.76,1.18-1.12,2-1.91,3.82-3.93,5.89-5.73a31.81,31.81,0,0,1,52,17.44,31,31,0,0,1-2,19.24,2,2,0,0,0,.47,2.55c8.08,9,10.63,19.5,6.92,31s-11.87,18.67-23.74,21.12c-9.72,2-18.51-.45-26.22-6.72ZM90.85,62.64H89.13c-3.35,0-6.7-.07-10,0a6.48,6.48,0,0,0-3,.87,4.65,4.65,0,0,0-1.9,5.34,4.91,4.91,0,0,0,4.79,3.51c3.35,0,6.7,0,10,0h1.87c0,4.1,0,8,0,11.83a4.88,4.88,0,1,0,9.76,0c0-2.17,0-4.34,0-6.51V72.4h11.62c3.09,0,5.32-2,5.32-4.85s-2.1-4.89-5.21-4.91c-3.4,0-6.8-.06-10.19,0-1.29,0-1.59-.41-1.57-1.62.08-3.44,0-6.89,0-10.33a4.86,4.86,0,0,0-7.13-4.45,4.73,4.73,0,0,0-2.62,4.38C90.83,54.57,90.85,58.48,90.85,62.64Z"/></g></g></svg>